<svg width="316" height="314" viewBox="0 0 316 314" fill="none" xmlns="http://www.w3.org/2000/svg">
<rect width="253" height="237" transform="translate(32 36)" fill="#FFE600"/>
<path d="M58.0156 1.04973C43.6969 3.64192 30.9211 10.2458 20.6141 20.4294C10.5539 30.4279 4.25859 41.9693 1.17266 56.2263C0.0617188 61.2255 0 66.1013 0 156.828C0 247.554 0.0617188 252.43 1.17266 257.429C7.52969 286.561 29.8102 307.854 58.818 312.668C64.1875 313.532 74.9883 313.655 160.469 313.47L256.133 313.285L261.379 311.865C267.859 310.137 271.995 308.594 276.994 306.125C292.979 298.102 306.125 283.043 311.68 266.44C315.568 254.899 315.259 262.305 315.506 161.148C315.691 100.849 315.506 66.8419 315.136 63.0154C313.346 46.5982 306.742 32.6497 295.324 21.1083C284.4 10.0607 271.933 3.5802 256.812 0.98801C248.85 -0.369803 65.6688 -0.308084 58.0156 1.04973ZM160.777 66.7185L163.308 74.7419H171.948C178.429 74.7419 180.527 74.9271 180.527 75.4825C180.466 75.9146 177.441 78.445 173.8 81.0372L167.073 85.8513L169.603 93.8747C170.961 98.2568 171.948 102.022 171.763 102.268C171.516 102.454 168.307 100.355 164.542 97.6396L157.691 92.5786L150.841 97.6396C147.138 100.417 143.866 102.515 143.681 102.268C143.434 102.083 144.422 98.2568 145.78 93.8747L148.31 85.7896L141.583 81.0372C137.941 78.445 134.917 75.9146 134.917 75.4825C134.855 74.9271 136.954 74.7419 143.434 74.7419H152.075L154.605 66.7185C155.963 62.2747 157.383 58.695 157.691 58.695C158 58.695 159.42 62.2747 160.777 66.7185ZM115.97 88.4435C115.476 91.2825 114.92 95.1091 114.735 96.9607L114.365 100.355L121.833 104.058C128.066 107.083 130.165 108.44 129.177 108.749C129.054 108.749 125.227 109.366 120.66 110.107L112.328 111.465L110.97 119.797C110.23 124.364 109.613 128.19 109.613 128.252C109.304 129.301 107.946 127.203 104.922 121.031C100.663 112.452 101.836 113.008 91.3438 114.797C87.6406 115.415 84.3078 115.847 83.9992 115.661C83.7523 115.476 86.2211 112.576 89.5539 109.243L95.6641 103.133L91.7758 95.356C89.6156 91.0357 88.0109 87.456 88.1344 87.2708C88.3195 87.1474 91.9609 88.7521 96.2195 90.9122L103.996 94.8005L109.983 88.8138C113.254 85.5427 116.155 82.9505 116.402 83.0739C116.587 83.2591 116.402 85.6661 115.97 88.4435ZM219.04 90.9739C223.237 88.8755 226.816 87.3325 227.002 87.5177C227.187 87.7028 225.644 91.2825 223.545 95.4794L219.719 103.133L225.829 109.243C229.162 112.576 231.63 115.476 231.384 115.6C231.075 115.785 227.927 115.415 224.348 114.797C213.547 113.008 214.72 112.452 210.461 121.031C207.437 127.203 206.079 129.301 205.77 128.252C205.77 128.19 205.153 124.364 204.413 119.797L203.055 111.465L194.723 110.107C190.155 109.366 186.329 108.749 186.267 108.687C185.156 108.502 187.378 107.083 193.488 104.058C202.067 99.7997 201.512 100.972 199.722 90.4802C199.105 86.7153 198.673 83.4443 198.858 83.1357C199.043 82.8888 201.944 85.3575 205.277 88.6903L211.387 94.8005L219.04 90.9739ZM81.9625 140.781L86.7148 147.447L91.2203 146.089C93.6273 145.286 97.2688 144.176 99.182 143.558C101.157 142.941 102.885 142.571 103.132 142.756C103.317 143.003 101.219 146.212 98.5031 149.977L93.5039 156.828L98.5031 163.679C101.219 167.443 103.317 170.653 103.132 170.9C102.885 171.085 101.157 170.715 99.182 170.097C97.2688 169.48 93.6273 168.369 91.2203 167.567L86.7148 166.209L81.9625 172.875C79.3086 176.578 76.7781 179.602 76.4078 179.664C75.7906 179.664 75.6055 177.565 75.6055 171.023V162.444L67.582 159.914C63.2 158.556 59.5586 157.136 59.5586 156.828C59.5586 156.519 63.2 155.1 67.582 153.742L75.6055 151.211V142.633C75.6055 136.09 75.7906 133.992 76.4078 133.992C76.7781 134.054 79.3086 137.078 81.9625 140.781ZM239.777 142.571V151.15L247.801 153.68C252.245 155.1 255.824 156.519 255.824 156.828C255.824 157.136 252.245 158.556 247.801 159.976L239.777 162.506V171.085C239.777 177.565 239.592 179.664 239.037 179.664C238.605 179.602 236.074 176.578 233.482 172.936L228.73 166.271L220.706 168.74C216.263 170.159 212.498 171.085 212.251 170.9C212.066 170.653 214.164 167.443 216.88 163.679L221.879 156.828L216.88 149.977C214.164 146.212 212.066 143.003 212.251 142.756C212.498 142.571 216.263 143.497 220.706 144.916L228.73 147.385L233.482 140.719C236.074 137.078 238.605 134.054 239.037 133.992C239.592 133.992 239.777 136.09 239.777 142.571ZM109.613 185.342C109.613 185.465 110.23 189.292 110.97 193.859L112.328 202.191L120.66 203.549C125.227 204.29 129.054 204.907 129.177 204.907C130.165 205.215 128.066 206.573 121.895 209.597C113.316 213.856 113.871 212.683 115.661 223.484C116.278 227.064 116.648 230.211 116.463 230.52C116.34 230.767 113.439 228.298 110.106 224.965L103.996 218.855L96.343 222.682C92.1461 224.78 88.5664 226.323 88.3813 226.138C88.1961 225.953 89.7391 222.373 91.8375 218.176L95.6641 210.523L89.5539 204.413C86.2211 201.08 83.7523 198.179 83.9992 198.056C84.3078 197.871 87.4555 198.241 91.0352 198.858C101.836 200.648 100.663 201.204 104.922 192.625C107.946 186.453 109.304 184.354 109.613 185.342ZM210.461 192.625C214.72 201.204 213.547 200.648 224.039 198.858C227.804 198.241 231.075 197.809 231.384 197.994C231.63 198.179 229.162 201.08 225.829 204.413L219.719 210.523L223.545 218.176C225.644 222.373 227.187 225.953 227.002 226.138C226.816 226.323 223.237 224.78 219.04 222.682L211.387 218.855L205.277 224.965C201.944 228.298 199.043 230.767 198.92 230.52C198.734 230.211 199.105 227.064 199.722 223.484C201.512 212.683 202.067 213.856 193.488 209.597C187.378 206.573 185.156 205.154 186.267 204.968C186.329 204.907 190.155 204.29 194.723 203.549L203.055 202.191L204.413 193.859C205.153 189.292 205.77 185.465 205.77 185.342C206.079 184.354 207.437 186.453 210.461 192.625ZM150.964 216.078L157.691 221.015L164.542 216.016C168.307 213.3 171.516 211.202 171.763 211.387C171.948 211.634 170.961 215.399 169.603 219.781L167.073 227.804L173.8 232.618C177.441 235.211 180.466 237.741 180.527 238.111C180.527 238.729 178.429 238.914 171.948 238.914H163.308L160.777 246.937C159.42 251.319 158 254.961 157.691 254.961C157.383 254.961 155.963 251.319 154.605 246.937L152.075 238.914H143.434C136.954 238.914 134.855 238.729 134.917 238.111C134.917 237.741 137.941 235.211 141.645 232.618L148.31 227.866L145.903 220.275C143.496 212.683 143.188 211.14 143.866 211.14C144.113 211.14 147.261 213.362 150.964 216.078Z" fill="#2B42C3"/>
</svg>
